<?xml version="1.0" encoding="utf-8"?>
<!-- Generator: Adobe Illustrator 19.0.0, SVG Export Plug-In . SVG Version: 6.00 Build 0)  -->
<svg version="1.1" id="Calque_1" xmlns="http://www.w3.org/2000/svg" xmlns:xlink="http://www.w3.org/1999/xlink" x="0px" y="0px"
	 viewBox="0 0 84.2 74.8" style="enable-background:new 0 0 84.2 74.8;" xml:space="preserve">
<style type="text/css">
	.st0{fill:#D8D8D8;}
</style>
<g id="XMLID_2624_">
	<path id="XMLID_2628_" class="st0" d="M33.3,40.1c-1.6,1.8-2,3-4.1,6.3c1.4,0.9,4,3.1,5.8,6.9c3.6-2.1,5.3-2.4,7.2-4
		C54.7,38.8,85.3,1.1,84.2,0C83.1-1.1,44.3,28,33.3,40.1z M25.6,49.4c-5.4-1-10.8,2.5-14.4,11C7.6,69,1.2,72.4,0,72.2
		c6.7,2.4,27,8.6,32.1-14.9C29.9,51.7,25.6,49.4,25.6,49.4z"/>
</g>
</svg>
