<?xml version="1.0" encoding="utf-8"?>
<!-- Generator: Adobe Illustrator 19.0.0, SVG Export Plug-In . SVG Version: 6.00 Build 0)  -->
<svg version="1.1" id="Calque_1" xmlns="http://www.w3.org/2000/svg" xmlns:xlink="http://www.w3.org/1999/xlink" x="0px" y="0px"
	 viewBox="0 0 99.1 90.1" style="enable-background:new 0 0 99.1 90.1;" xml:space="preserve">
<style type="text/css">
	.st0{fill:#D8D8D8;}
</style>
<g id="XMLID_159_">
	<path id="XMLID_131_" class="st0" d="M63.5,20.1H35.6c-3.4,0-6.2-2.8-6.2-6.2V6.2c0-3.4,2.8-6.2,6.2-6.2h27.9
		c3.4,0,6.2,2.8,6.2,6.2v7.6C69.7,17.3,66.9,20.1,63.5,20.1z"/>
	<path id="XMLID_162_" class="st0" d="M43.3,18.4L1.4,78.1c-3.5,5.1,0.1,12,6.2,12h83.8c6.2,0,9.8-6.9,6.2-12L55.8,18.4
		C52.7,14.1,46.3,14.1,43.3,18.4z"/>
	<rect id="XMLID_158_" x="36.4" y="14.4" class="st0" width="26.3" height="26.2"/>
</g>
</svg>
