
<svg version="1.1" id="Calque_1" xmlns="http://www.w3.org/2000/svg" xmlns:xlink="http://www.w3.org/1999/xlink" x="0px" y="0px"
	 viewBox="0 0 56.8 57.7" style="enable-background:new 0 0 56.8 57.7;" xml:space="preserve">
<style type="text/css">
	.st0{fill:#0B0F1D;}
</style>
<g id="XMLID_1561_">
	<circle id="XMLID_1589_" class="st0" cx="35.6" cy="7.7" r="7.7"/>
	<path id="XMLID_1588_" class="st0" d="M37.2,26.8L37.2,26.8c-1,1.1-2.6,1.2-3.7,0.2L15.1,10.5c-1.1-1-1.2-2.6-0.2-3.7l0,0
		c1-1.1,2.6-1.2,3.7-0.2L37,23C38.1,24,38.2,25.7,37.2,26.8z"/>
	<path id="XMLID_1587_" class="st0" d="M22.8,36.1L22.8,36.1c-0.9,2.4-3.5,3.7-5.9,2.8L5.5,34.8c-2.4-0.9-3.7-3.5-2.8-5.9l0,0
		c0.9-2.4,3.5-3.7,5.9-2.8L20,30.2C22.4,31,23.7,33.7,22.8,36.1z"/>
	<path id="XMLID_1586_" class="st0" d="M16.4,56.8L16.4,56.8c-1.4-0.3-2.3-1.6-2-3L18,34.4c0.3-1.4,1.6-2.3,3-2l0,0
		c1.4,0.3,2.3,1.6,2,3l-3.7,19.4C19.1,56.1,17.8,57,16.4,56.8z"/>
	<path id="XMLID_1585_" class="st0" d="M41.8,26.7L41.8,26.7c-0.3,1.4-1.7,2.2-3.1,1.9l-4.1-1c-1.4-0.3-2.2-1.7-1.9-3.1v0
		c0.3-1.4,1.7-2.2,3.1-1.9l4.1,1C41.3,24,42.2,25.3,41.8,26.7z"/>
	<path id="XMLID_1584_" class="st0" d="M14,55.2L14,55.2c0-1.4,1.1-2.6,2.5-2.6l7.5-0.1c1.4,0,2.6,1.1,2.6,2.5v0
		c0,1.4-1.1,2.6-2.5,2.6l-7.5,0.1C15.1,57.7,14,56.6,14,55.2z"/>
	<path id="XMLID_1576_" class="st0" d="M49.1,31.3L49.1,31.3c-0.5-0.2-0.7-0.9-0.5-1.4l6.2-13.2c0.2-0.5,0.9-0.7,1.4-0.5l0,0
		c0.5,0.2,0.7,0.9,0.5,1.4l-6.2,13.2C50.2,31.4,49.6,31.6,49.1,31.3z"/>
	<path id="XMLID_1573_" class="st0" d="M33.6,30.4L33.6,30.4c0-0.6,0.5-1.1,1-1.1l14.6,0c0.6,0,1.1,0.5,1.1,1v0c0,0.6-0.5,1.1-1,1.1
		l-14.6,0C34.1,31.4,33.6,31,33.6,30.4z"/>
	<path id="XMLID_1572_" class="st0" d="M0,35L0,35c0-0.6,0.5-1.1,1-1.1l14.6,0c0.6,0,1.1,0.5,1.1,1l0,0c0,0.6-0.5,1.1-1,1.1L1.1,36
		C0.5,36,0,35.6,0,35z"/>
	<path id="XMLID_1571_" class="st0" d="M1,11.1L1,11.1c0.6,0,1.1,0.5,1.1,1L2.2,35c0,0.6-0.5,1.1-1,1.1h0c-0.6,0-1.1-0.5-1.1-1
		L0,12.1C0,11.6,0.5,11.1,1,11.1z"/>
	<path id="XMLID_1569_" class="st0" d="M3.1,34.6L3.1,34.6c-2.9-1.8-3.7-5.5-2-8.3l13-21.1c1.8-2.9,5.5-3.7,8.3-2l0,0
		c2.9,1.8,3.7,5.5,2,8.3l-13,21.1C9.7,35.4,5.9,36.3,3.1,34.6z"/>
</g>
</svg>
