
<svg version="1.1" id="Calque_1" xmlns="http://www.w3.org/2000/svg" xmlns:xlink="http://www.w3.org/1999/xlink" x="0px" y="0px"
	 viewBox="0 0 44.4 80.4" style="enable-background:new 0 0 44.4 80.4;" xml:space="preserve">
<style type="text/css">
	.st0{fill:#0B0F1D;}
</style>
<g id="XMLID_987_">
	<circle id="XMLID_1558_" class="st0" cx="23.8" cy="6.5" r="6.6"/>
	<path id="XMLID_1557_" class="st0" d="M18.6,48.4L18.6,48.4c-3.1,0-5.5-2.5-5.5-5.5V18.6c0-3.1,2.5-5.5,5.5-5.5h0
		c3.1,0,5.5,2.5,5.5,5.5v24.3C24.2,45.9,21.7,48.4,18.6,48.4z"/>
	<path id="XMLID_1556_" class="st0" d="M11.9,62.1L11.9,62.1c-1.8-0.6-2.8-2.6-2.2-4.4l4.6-13.8c0.6-1.8,2.6-2.8,4.4-2.2h0
		c1.8,0.6,2.8,2.6,2.2,4.4l-4.6,13.8C15.7,61.7,13.7,62.7,11.9,62.1z"/>
	<path id="XMLID_1555_" class="st0" d="M32.4,58.8L32.4,58.8c-1.5,1.2-3.7,0.9-4.9-0.6L18,46.2c-1.2-1.5-0.9-3.7,0.6-4.9l0,0
		c1.5-1.2,3.7-0.9,4.9,0.6L32.9,54C34.1,55.5,33.9,57.6,32.4,58.8z"/>
	<path id="XMLID_1554_" class="st0" d="M36.1,79L36.1,79c-1.9,0.5-3.7-0.7-4.2-2.5l-4.6-19c-0.5-1.9,0.7-3.7,2.5-4.2h0
		c1.9-0.5,3.7,0.7,4.2,2.5l4.6,19C39.1,76.6,38,78.5,36.1,79z"/>
	<path id="XMLID_1553_" class="st0" d="M1.6,76.9L1.6,76.9c-1.6-1-2.1-3.2-1.1-4.8l9.1-14.5c1-1.6,3.2-2.1,4.8-1.1l0,0
		c1.6,1,2.1,3.2,1.1,4.8L6.4,75.8C5.4,77.4,3.2,77.9,1.6,76.9z"/>
	<path id="XMLID_1544_" class="st0" d="M17.1,39.3l-7.9-6.2c-1.1-0.8-1.2-2.4-0.3-3.5l0,0c0.9-1.1,2.5-1.3,3.6-0.4l7.9,6.2
		c1.1,0.8,1.2,2.4,0.3,3.5l0,0C19.8,40,18.2,40.2,17.1,39.3z"/>
	<path id="XMLID_1539_" class="st0" d="M9.6,80.2l-7.2-2.9C1.5,77,1,75.9,1.4,75h0c0.4-0.9,1.5-1.4,2.4-1l7.2,2.9
		c0.9,0.4,1.4,1.5,1,2.4l0,0C11.6,80.2,10.6,80.6,9.6,80.2z"/>
	<path id="XMLID_1538_" class="st0" d="M23,39.6l-3.2-0.2c-1.5-0.1-2.7-1.3-2.6-2.7v0c0.1-1.4,1.4-2.4,3-2.4l3.2,0.2
		c1.5,0.1,2.7,1.3,2.6,2.7v0C25.9,38.7,24.5,39.7,23,39.6z"/>
	<path id="XMLID_1537_" class="st0" d="M12.6,31.9L18,18.5c0.5-1.2-0.1-2.5-1.3-3l0,0c-1.2-0.5-2.5,0.1-3,1.3L8.3,30.2
		c-0.5,1.2,0.1,2.5,1.3,3h0C10.8,33.7,12.1,33.1,12.6,31.9z"/>
	<path id="XMLID_1534_" class="st0" d="M31.5,39.6l-8.8-9.3c-1.2-1.3-1.3-3.1-0.2-4l0,0c1.1-0.9,2.9-0.7,4.1,0.6l8.8,9.3
		c1.2,1.3,1.3,3.1,0.2,4h0C34.5,41.2,32.7,40.9,31.5,39.6z"/>
	<path id="XMLID_1533_" class="st0" d="M28.9,30.3l-5.5-13.6c-0.5-1.2-1.8-1.8-3-1.3l0,0c-1.2,0.5-1.8,1.8-1.3,3L24.6,32
		c0.5,1.2,1.8,1.8,3,1.3h0C28.8,32.8,29.3,31.4,28.9,30.3z"/>
	<path id="XMLID_988_" class="st0" d="M43.3,75.6l-6.5,3.2c-0.9,0.4-2,0.1-2.5-0.8h0c-0.4-0.9-0.1-2,0.8-2.5l6.5-3.2
		c0.9-0.4,2-0.1,2.5,0.8l0,0C44.6,74,44.2,75.1,43.3,75.6z"/>
</g>
</svg>
