<?xml version="1.0" encoding="utf-8"?>
<!-- Generator: Adobe Illustrator 19.0.0, SVG Export Plug-In . SVG Version: 6.00 Build 0)  -->
<svg version="1.1" id="Calque_1" xmlns="http://www.w3.org/2000/svg" xmlns:xlink="http://www.w3.org/1999/xlink" x="0px" y="0px"
	 viewBox="0 0 85.5 72.5" style="enable-background:new 0 0 85.5 72.5;" xml:space="preserve">
<style type="text/css">
	.st0{fill:#D8D8D8;}
</style>
<path id="XMLID_3316_" class="st0" d="M85.4,67.9l-5.3-21.2c-0.1-0.3-0.2-0.6-0.4-0.9c0.3-0.8,0.5-1.8,0.5-2.7V8c0-4.4-3.6-8-8-8
	H13.3c-4.4,0-8,3.6-8,8v35c0,0.9,0.2,1.9,0.5,2.7c-0.2,0.3-0.3,0.6-0.4,0.9L0.1,68c-0.3,1.1,0,2.2,0.6,3.1c0.7,0.9,1.7,1.4,2.8,1.4
	H82c0,0,0,0,0,0c2,0,3.6-1.6,3.6-3.6C85.5,68.5,85.5,68.2,85.4,67.9z M51.8,66.9C51.8,66.9,51.8,66.9,51.8,66.9H33.7
	c-0.2,0-0.4-0.1-0.5-0.3C33,66.5,33,66.3,33,66.1l1.4-7.8c0.1-0.3,0.4-0.6,0.7-0.6h15.3c0.3,0,0.6,0.2,0.7,0.6l1.4,7.8
	c0,0.1,0,0.1,0,0.2C52.5,66.6,52.2,66.9,51.8,66.9z M73.2,43c0,0.4-0.2,0.8-0.6,0.9H12.9c-0.3-0.2-0.6-0.5-0.6-0.9V8
	c0-0.6,0.5-1,1-1h58.9c0.6,0,1,0.5,1,1L73.2,43L73.2,43z"/>
</svg>
