<?xml version="1.0" encoding="utf-8"?>
<!-- Generator: Adobe Illustrator 19.0.0, SVG Export Plug-In . SVG Version: 6.00 Build 0)  -->
<svg version="1.1" id="Calque_1" xmlns="http://www.w3.org/2000/svg" xmlns:xlink="http://www.w3.org/1999/xlink" x="0px" y="0px"
	 viewBox="0 0 74.8 49" style="enable-background:new 0 0 74.8 49;" xml:space="preserve">
<style type="text/css">
	.st0{fill:#D8D8D8;}
</style>
<g id="XMLID_7_">
	<g id="XMLID_53_">
		<g id="XMLID_55_">
			<path id="XMLID_74_" class="st0" d="M11.4,0C11.4,0,11.4,0,11.4,0c-0.7,0-1.4,0.2-1.9,0.7c-0.5,0.4-0.8,1-0.8,1.6v34.4
				c0,1.3,1.2,2.3,2.7,2.3c6.2,0,16.7,1.1,23.9,7.6v-36c0-0.4-0.1-0.8-0.4-1.2C29,1.3,17.7,0,11.4,0z"/>
			<path id="XMLID_73_" class="st0" d="M66,36.7V2.3c0-0.6-0.3-1.2-0.8-1.6C64.7,0.2,64.1,0,63.4,0c0,0,0,0,0,0
				c-6.2,0-17.6,1.3-23.5,9.4c-0.2,0.3-0.4,0.7-0.4,1.2v36c7.2-6.5,17.6-7.6,23.9-7.6C64.8,39,66,37.9,66,36.7z"/>
			<path id="XMLID_69_" class="st0" d="M72.1,7.9h-1.9v28.8c0,3.2-3.1,5.8-6.8,5.9c-5.3,0-14,0.9-20.2,5.9
				c10.7-2.2,21.9-0.8,28.3,0.5c0.8,0.2,1.6,0,2.3-0.4c0.6-0.4,1-1.1,1-1.8V10.2C74.8,9,73.6,7.9,72.1,7.9z"/>
			<path id="XMLID_56_" class="st0" d="M4.6,36.7V7.9H2.7C1.2,7.9,0,9,0,10.2v36.5c0,0.7,0.4,1.4,1,1.8c0.6,0.4,1.5,0.6,2.3,0.4
				c6.4-1.3,17.7-2.7,28.3-0.5c-6.2-5-14.9-5.9-20.2-5.9C7.7,42.5,4.6,39.9,4.6,36.7z"/>
		</g>
	</g>
</g>
</svg>
