<?xml version="1.0" encoding="utf-8"?>
<!-- Generator: Adobe Illustrator 19.0.0, SVG Export Plug-In . SVG Version: 6.00 Build 0)  -->
<svg version="1.1" id="Calque_1" xmlns="http://www.w3.org/2000/svg" xmlns:xlink="http://www.w3.org/1999/xlink" x="0px" y="0px"
	 viewBox="0 0 23.2 29.7" style="enable-background:new 0 0 23.2 29.7;" xml:space="preserve">
<style type="text/css">
	.st0{fill:none;}
	.st1{fill:#0B0F1D;}
	.st2{fill:url(#XMLID_202_);}
	.st3{fill:url(#XMLID_203_);}
</style>
<pattern  x="-469" y="-269.9" width="87.1" height="80.8" patternUnits="userSpaceOnUse" id="coul1" viewBox="0 -80.8 87.1 80.8" style="overflow:visible;">
	<g id="XMLID_20_">
		<polygon id="XMLID_22_" class="st0" points="0,-80.8 87.1,-80.8 87.1,0 0,0 		"/>
		<polygon id="XMLID_21_" class="st1" points="87.1,0 0,0 0,-80.8 87.1,-80.8 		"/>
	</g>
</pattern>
<pattern  id="XMLID_202_" xlink:href="#coul1" patternTransform="matrix(1.0673 0 0 3.0725 862.8093 11572.583)">
</pattern>
<path id="XMLID_136_" class="st2" d="M21.1,9.4C21.1,4.1,16.8,0,11.5,0C6.3,0,2,4.2,2,9.5v9.6h3V9.5C5,6.3,7.9,3,11.5,3
	C15,3,18,6.3,18,9.5v1.7c0,0.5,0.6,1.9,1.1,1.9h1.1c0.5,0,1-1.1,1-1.7C21.2,11.4,21.1,9.4,21.1,9.4z"/>
<pattern  id="XMLID_203_" xlink:href="#coul1" patternTransform="matrix(1.1304 0 0 3.4791 1349.4156 14159.3252)">
</pattern>
<path id="XMLID_82_" class="st3" d="M20.8,29.7H2.4c-1.3,0-2.4-1.1-2.4-2.4v-9.8c0-1.3,1.1-2.4,2.4-2.4h18.4c1.3,0,2.4,1.1,2.4,2.4
	v9.8C23.2,28.7,22.1,29.7,20.8,29.7z"/>
</svg>
