<?xml version="1.0" encoding="utf-8"?>
<svg version="1.1" id="Calque_1" xmlns="http://www.w3.org/2000/svg" xmlns:xlink="http://www.w3.org/1999/xlink" x="0px" y="0px"
	 viewBox="0 0 169.6 203.9" style="enable-background:new 0 0 169.6 203.9;" xml:space="preserve">
<style type="text/css">
	.st0{fill:none;stroke:#000000;stroke-miterlimit:10;}
</style>
<g id="XMLID_27_">
	<path id="XMLID_34_" class="st0" d="M134.6,143c0,1-0.8,1.9-1.9,1.9H75.5c-1,0-1.9-0.8-1.9-1.9v-1.2c0-1,0.8-1.9,1.9-1.9h57.2
		c1,0,1.9,0.8,1.9,1.9V143z"/>
	<path id="XMLID_35_" class="st0" d="M22.6,76.5c0-5.7,2.6-11.2,7.3-14.8l-10-17.9c-1.2-2.2-0.4-5,1.8-6.3l4.6-2.6l-6-10.7L19,25
		c-1.5,0.8-3.4,0.3-4.2-1.2l-2.5-4.5c-0.8-1.5-0.3-3.4,1.2-4.2L33.6,3.9c1.5-0.8,3.4-0.3,4.2,1.2l2.5,4.5c0.8,1.5,0.3,3.4-1.2,4.2
		l-1.4,0.8l6,10.7l4.6-2.6c2.2-1.2,5-0.4,6.3,1.8L99,104.4c1.2,2.2,0.4,5-1.8,6.3l-4.1,2.3l1.5,2.7c0.8,1.5,0.3,3.4-1.2,4.2l-13,7.2
		c-1.5,0.8-3.4,0.3-4.2-1.2l-1.5-2.7l-4.1,2.3c-2.2,1.2-5,0.4-6.3-1.8L47.9,94.1c-4.2,1.6-8.7,1.6-12.7,0.2
		c-12,14.7-14.8,36.1-4.9,53.8c0.3,0.5,0.6,1,0.9,1.5c3.6-2.2,7.8-3.5,12.4-3.5c4.2,0,8.1,1.6,11.5,3.5c0.7-1.3,2.1-1.6,3.7-1.6
		h104.5c2.4,0,3.3,0.9,3.3,3.3v3.8c0,2.4-1,4.9-3.3,4.9H64.8c0.6,1,1.1,2,1.5,4h95.8c3,0,4.5,1.6,4.5,4.6v26.6c0,3-1.5,5.8-4.5,5.8
		H42.2c-3,0-5.6-2.8-5.6-5.8v-2.5c-10-2.9-16.9-12-16.9-22.7c-3-3.5-5.6-7.3-8-11.5C-3.5,131.1,1.9,97.8,22.6,76.5z"/>
</g>
</svg>
