
<svg version="1.1" id="Calque_1" xmlns="http://www.w3.org/2000/svg" xmlns:xlink="http://www.w3.org/1999/xlink" x="0px" y="0px"
	 viewBox="0 0 54.3 50.5" style="enable-background:new 0 0 54.3 50.5;" xml:space="preserve">
<style type="text/css">
	.st0{fill:#D8D8D8;}
</style>
<g id="XMLID_1592_">
	<circle id="XMLID_1637_" class="st0" cx="47.2" cy="11" r="7.1"/>
	<circle id="XMLID_1636_" class="st0" cx="18.2" cy="23.4" r="8.7"/>
	<path id="XMLID_1635_" class="st0" d="M9.1,25.9L9.1,25.9c-2.8-3.3-2.4-8.3,0.9-11.2L25.3,1.9c3.3-2.8,8.3-2.4,11.2,0.9l0,0
		c2.8,3.3,2.4,8.3-0.9,11.2L20.2,26.9C16.9,29.7,11.9,29.3,9.1,25.9z"/>
	<path id="XMLID_1616_" class="st0" d="M39.3,47.1L39.3,47.1c-1.3,0.3-2.6-0.4-3-1.7L28.1,14c-0.3-1.3,0.4-2.6,1.7-3l0,0
		c1.3-0.3,2.6,0.4,3,1.7l8.2,31.3C41.4,45.4,40.6,46.7,39.3,47.1z"/>
	<path id="XMLID_1615_" class="st0" d="M23.6,50.1L23.6,50.1c-2.5,0-4.5-2-4.5-4.5V16.5c0-2.5,2-4.5,4.5-4.5h0c2.5,0,4.5,2,4.5,4.5
		v29.1C28.1,48.1,26.1,50.1,23.6,50.1z"/>
	<path id="XMLID_1611_" class="st0" d="M18.1,36.3L18.1,36.3c-2.1,1-4.7,0.1-5.7-2L7.7,24.2c-1-2.1-0.1-4.7,2-5.7l0,0
		c2.1-1,4.7-0.1,5.7,2l4.8,10.1C21.1,32.7,20.2,35.3,18.1,36.3z"/>
	<path id="XMLID_1598_" class="st0" d="M0.4,45.5L0.4,45.5C-0.3,44.5,0,43,1,42.3L16.1,32c1.1-0.7,2.6-0.5,3.3,0.6l0,0
		c0.7,1.1,0.5,2.6-0.6,3.3L3.7,46.2C2.6,46.9,1.1,46.6,0.4,45.5z"/>
	<path id="XMLID_1597_" class="st0" d="M35,49.9L35,49.9c-1-0.8-1.2-2.2-0.5-3.3l2.3-3.1c0.8-1,2.2-1.2,3.3-0.5h0
		c1,0.8,1.2,2.2,0.5,3.3l-2.3,3.1C37.5,50.5,36,50.7,35,49.9z"/>
	<path id="XMLID_1595_" class="st0" d="M20.7,47.5L20.7,47.5c0.1-1.3,1.2-2.3,2.5-2.2l7,0.5c1.3,0.1,2.3,1.2,2.2,2.5v0
		c-0.1,1.3-1.2,2.3-2.5,2.2l-7-0.5C21.5,49.9,20.6,48.8,20.7,47.5z"/>
	<path id="XMLID_1594_" class="st0" d="M0.2,43.3L0.2,43.3c0.6-1.1,2-1.6,3.2-1l7.2,3.8c1.1,0.6,1.6,2,1,3.2l0,0
		c-0.6,1.1-2,1.6-3.2,1l-7.2-3.8C0,45.8-0.4,44.4,0.2,43.3z"/>
</g>
</svg>
