<?xml version="1.0" encoding="utf-8"?>
<!-- Generator: Adobe Illustrator 19.0.0, SVG Export Plug-In . SVG Version: 6.00 Build 0)  -->
<svg version="1.1" id="Calque_1" xmlns="http://www.w3.org/2000/svg" xmlns:xlink="http://www.w3.org/1999/xlink" x="0px" y="0px"
	 viewBox="-452.3 256.5 54.6 48.3" style="enable-background:new -452.3 256.5 54.6 48.3;" xml:space="preserve">
<style type="text/css">
	.st0{fill:#0B0F1D;}
</style>
<g>
	<circle class="st0" cx="-404.9" cy="265.3" r="7.1"/>
	<path class="st0" d="M-411.1,298.3l-7.3-27.8l2.9-2.3c2.9-2.4,3.3-6.5,0.8-9.2c-2.6-2.7-7-3-10-0.7l-12.8,9.9
		c-3.8,1.2-6.5,4.7-6.5,8.9c0,2.1,0.7,4,1.8,5.5l3.1,5.8l-12.1,8.2c-0.3,0.2-0.6,0.6-0.7,0.9c0,0,0,0-0.1,0.1
		c-0.6,1.1-0.2,2.5,1,3.2l7.2,3.8c1.2,0.6,2.6,0.1,3.2-1c0.6-1.2,0.1-2.6-1-3.2l-3.8-2l12-8.2c0.2-0.1,0.4-0.3,0.5-0.5v10.2
		c0,2.5,1.7,4.5,3.8,4.5c0.2,0,0.3,0,0.4-0.1l6.3,0.5c1.3,0.1,2.4-0.9,2.5-2.2c0.1-1.3-0.9-2.4-2.2-2.5l-3.3-0.2v-24.1l2.6-2l6.5,25
		l-1.6,2.1c-0.7,1.1-0.5,2.5,0.5,3.3c1,0.8,2.5,0.6,3.3-0.5l2.3-3.1c0.1-0.2,0.2-0.3,0.2-0.5C-411,299.5-410.9,298.9-411.1,298.3z"
		/>
</g>
</svg>
