<svg version="1.1" id="Calque_1" xmlns="http://www.w3.org/2000/svg" xmlns:xlink="http://www.w3.org/1999/xlink" x="0px" y="0px"
	 viewBox="0 0 137.3 401.1" style="enable-background:new 0 0 137.3 401.1;" xml:space="preserve">
<style type="text/css">
	.st0{fill:#FFFFFF;}
</style>
<g id="XMLID_85_">
	<path id="XMLID_22_" class="st0" d="M135,257.1c0-29.2-9.6-53.7-21.6-54V80c0-43-19.8-78.8-44.9-78.8c-25.1,0-45,36.9-45.1,79.9h-1
		V203c0,0,0.4,0,0.3,0c-11.8,0-21,24.7-21,54.1c0,0.1,0.3,1,0.3,1h20.5v5.2c0,2.6,3.1,5.8,5.7,5.8h13.8c-2.2,7-3.4,15.7-3.4,24.6
		c0,0.1,0,0.4,0,0.4h61c0,0,0-0.4,0-0.5c0-8.8-1.2-17.5-3.4-24.5h13.6c2.6,0,3.7-3.2,3.7-5.8v-5.2h22.1
		C135.6,258.1,135,257.1,135,257.1z M68.9,69.8c8.2,0,14.8,6.6,14.8,14.8s-6.6,14.8-14.8,14.8c-8.2,0-14.8-6.6-14.8-14.8
		S60.8,69.8,68.9,69.8z"/>
	<g id="XMLID_1_">
		<path id="XMLID_3_" class="st0" d="M69.3,400C69.3,400,69.3,400,69.3,400C69.3,400,69.2,400,69.3,400L69.3,400z"/>
		<path id="XMLID_20_" class="st0" d="M96.6,340.4c0.8-2.7,1.3-5.6,1.3-8.7c0-16.3-13.2-29.6-29.6-29.6c-16.3,0-29.6,13.2-29.6,29.6
			c0,3.3,0.5,6.4,1.5,9.3c7.1,29.6,21.9,58.9,28.9,59C76.4,399.9,90.6,370.2,96.6,340.4z"/>
	</g>
</g>
</svg>
