<?xml version="1.0" encoding="utf-8"?>
<!-- Generator: Adobe Illustrator 19.0.0, SVG Export Plug-In . SVG Version: 6.00 Build 0)  -->
<svg version="1.1" id="Calque_1" xmlns="http://www.w3.org/2000/svg" xmlns:xlink="http://www.w3.org/1999/xlink" x="0px" y="0px"
	 viewBox="0 0 509.1 209.7" style="enable-background:new 0 0 509.1 209.7;" xml:space="preserve">
<style type="text/css">
	.st0{fill:#FFFFFF;}
</style>
<g id="XMLID_6_">
	<g id="XMLID_5_">
		<path id="XMLID_3_" class="st0" d="M139.7,174.4H21.4c-9,0-16.3-7.3-16.3-16.3v-54.5c0-9,7.3-16.3,16.3-16.3h118.3
			c9,0,16.3,7.3,16.3,16.3v54.5C156,167.1,148.7,174.4,139.7,174.4z"/>
		<path id="XMLID_8_" class="st0" d="M487.7,174.4H369.4c-9,0-16.3-7.3-16.3-16.3v-54.5c0-9,7.3-16.3,16.3-16.3h118.3
			c9,0,16.3,7.3,16.3,16.3v54.5C504,167.1,496.7,174.4,487.7,174.4z"/>
	</g>
	<g id="XMLID_4_">
		<path id="XMLID_1_" class="st0" d="M321.7,206.6H187.4c-9,0-16.3-7.3-16.3-16.3V71.5c0-9,7.3-16.3,16.3-16.3h134.3
			c9,0,16.3,7.3,16.3,16.3v118.8C338,199.3,330.7,206.6,321.7,206.6z"/>
		<path id="XMLID_7_" class="st0" d="M254.6,61.3c40.4,0,73.6-18.4,76.7-40c0.3-1.8-1.2-3.4-3-3.4H180.8c-1.8,0-3.2,1.6-3,3.4
			C181,42.9,214.1,61.3,254.6,61.3z"/>
		<circle id="XMLID_2_" class="st0" cx="254.6" cy="18" r="14.9"/>
	</g>
</g>
</svg>
