<?xml version="1.0" encoding="utf-8"?>
<!-- Generator: Adobe Illustrator 19.0.0, SVG Export Plug-In . SVG Version: 6.00 Build 0)  -->
<svg version="1.1" id="Calque_1" xmlns="http://www.w3.org/2000/svg" xmlns:xlink="http://www.w3.org/1999/xlink" x="0px" y="0px"
	 viewBox="0 0 82.6 79.2" style="enable-background:new 0 0 82.6 79.2;" xml:space="preserve">
<style type="text/css">
	.st0{fill:#D8D8D8;}
</style>
<g id="XMLID_193_">
	<path id="XMLID_2197_" class="st0" d="M45.2,30.1c0.5,0,1,0.1,1.4,0.2l8.6-10.5c0.5-0.7,1.6-0.8,2.2-0.2c0.6,0.5,0.7,1.5,0.2,2.2
		l-8.5,10.4c0.6,0.8,0.9,1.8,0.9,2.8c0,2-1.2,3.7-2.9,4.4h33.2c1.2,0,2.2-1,2.2-2.2V9.3c0-1.2-1-2.2-2.2-2.2H38.3
		c-1.2,0-2.2,1-2.2,2.2v18.3l2,2.5L45.2,30.1L45.2,30.1z"/>
	<circle id="XMLID_2196_" class="st0" cx="17.7" cy="9" r="9"/>
	<g id="XMLID_2194_">
		<path id="XMLID_2195_" class="st0" d="M27,77c0,1.2-1,2.2-2.2,2.2h-3.7c-1.2,0-2.2-1-2.2-2.2V58.5c0-0.7-0.5-1.2-1.2-1.2l0,0
			c-0.7,0-1.2,0.5-1.2,1.2v18.4c0,1.3-1,2.3-2.3,2.3h-3.6c-1.2,0-2.2-1-2.2-2.2l0-44.6c0-0.6-0.5-1.1-1.1-1.1l0,0
			c-0.6,0-1.1,0.5-1.1,1.1v17.2c0,1.2-1,2.2-2.2,2.2H2.2c-1.2,0-2.2-1-2.2-2.2V26c0-2.8,2.3-5.1,5.1-5.1h20.1c2.2,0,4.2,1,5.5,2.7
			l5.4,6.8l1.1,1.4c0,0,5.1,0,8.1,0c1.2,0,2.2,1,2.2,2.2v1.8c0,1.2-1,2.2-2.2,2.2h-9.5c-0.9,0-1.8-0.4-2.4-1.2l-4-5.2
			c-0.2-0.3-0.5-0.4-0.9-0.4h-0.3c-0.6,0-1.1,0.5-1.1,1.1L27,77z"/>
	</g>
</g>
</svg>
