<?xml version="1.0" encoding="utf-8"?>
<!-- Generator: Adobe Illustrator 19.0.0, SVG Export Plug-In . SVG Version: 6.00 Build 0)  -->
<svg version="1.1" id="Calque_1" xmlns="http://www.w3.org/2000/svg" xmlns:xlink="http://www.w3.org/1999/xlink" x="0px" y="0px"
	 viewBox="0 0 60.5 49" style="enable-background:new 0 0 60.5 49;" xml:space="preserve">
<style type="text/css">
	.st0{fill:none;}
	.st1{fill:#0B0F1D;}
	.st2{fill:#D24116;}
	.st3{fill:url(#Behance_2_);}
</style>
<pattern  x="-283.6" y="-114.7" width="87.1" height="80.8" patternUnits="userSpaceOnUse" id="coul1" viewBox="0 -80.8 87.1 80.8" style="overflow:visible;">
	<g id="XMLID_20_">
		<polygon id="XMLID_22_" class="st0" points="0,-80.8 87.1,-80.8 87.1,0 0,0 		"/>
		<polygon id="XMLID_21_" class="st1" points="87.1,0 0,0 0,-80.8 87.1,-80.8 		"/>
	</g>
</pattern>
<path id="XMLID_575_" class="st2" d="M4.3,43.4L0,7c-0.4-3.7,2.5-7,6.2-7l48,0c3.7,0,6.7,3.3,6.2,7l-4.2,36.4
	c-0.4,3.2-3,5.6-6.2,5.6H10.5C7.3,49,4.6,46.6,4.3,43.4z"/>
<g id="XMLID_494_">
	<pattern  id="Behance_2_" xlink:href="#coul1" patternTransform="matrix(1 0 0 1 1250.4769 -1399.0458)">
	</pattern>
	<path id="Behance_1_" class="st3" d="M46.4,15.6H36.4v-2.5h10.1L46.4,15.6L46.4,15.6z M29.7,25.8c0.6,1,1,2.2,1,3.7
		c0,1.5-0.4,2.8-1.1,4c-0.5,0.8-1.1,1.4-1.8,2C27,36,26,36.4,25,36.6c-1.1,0.2-2.3,0.3-3.5,0.3H10.2V12h12.1c3,0,5.2,0.9,6.5,2.7
		c0.8,1.1,1.1,2.3,1.1,3.8c0,1.5-0.4,2.7-1.2,3.7c-0.4,0.5-1.1,1-1.9,1.4C28.1,24.1,29,24.8,29.7,25.8z M15.9,21.9h5.3
		c1.1,0,2-0.2,2.6-0.6c0.7-0.4,1-1.1,1-2.2c0-1.2-0.4-1.9-1.3-2.3c-0.8-0.3-1.8-0.4-2.9-0.4h-4.6V21.9z M25.4,29.1
		c0-1.3-0.5-2.2-1.6-2.7c-0.6-0.3-1.4-0.4-2.5-0.4h-5.4v6.7h5.3c1.1,0,1.9-0.1,2.5-0.4C24.8,31.7,25.4,30.6,25.4,29.1z M50.1,25
		c0.1,0.8,0.2,2,0.2,3.6h-13c0.1,1.8,0.7,3.1,1.9,3.8c0.7,0.5,1.6,0.7,2.6,0.7c1.1,0,1.9-0.3,2.6-0.8c0.4-0.3,0.7-0.7,1-1.2h4.8
		c-0.1,1.1-0.7,2.1-1.7,3.2c-1.6,1.7-3.8,2.6-6.7,2.6c-2.4,0-4.5-0.7-6.3-2.2c-1.8-1.5-2.7-3.9-2.7-7.2c0-3.1,0.8-5.5,2.5-7.1
		c1.6-1.7,3.8-2.5,6.4-2.5c1.6,0,3,0.3,4.2,0.8c1.2,0.6,2.3,1.4,3.1,2.6C49.5,22.4,49.9,23.6,50.1,25z M45.4,25.5
		c-0.1-1.2-0.5-2.2-1.2-2.8c-0.7-0.6-1.7-1-2.8-1c-1.2,0-2.1,0.3-2.8,1c-0.7,0.7-1.1,1.6-1.2,2.8L45.4,25.5L45.4,25.5z"/>
</g>
</svg>
