<?xml version="1.0" encoding="utf-8"?>
<!-- Generator: Adobe Illustrator 19.0.0, SVG Export Plug-In . SVG Version: 6.00 Build 0)  -->
<svg version="1.1" id="Calque_1" xmlns="http://www.w3.org/2000/svg" xmlns:xlink="http://www.w3.org/1999/xlink" x="0px" y="0px"
	 viewBox="0 0 60.5 49" style="enable-background:new 0 0 60.5 49;" xml:space="preserve">
<style type="text/css">
	.st0{fill:none;}
	.st1{fill:#0B0F1D;}
	.st2{fill:#D24116;}
	.st3{fill:url(#XMLID_31_);}
</style>
<pattern  x="-283.6" y="-114.7" width="87.1" height="80.8" patternUnits="userSpaceOnUse" id="coul1" viewBox="0 -80.8 87.1 80.8" style="overflow:visible;">
	<g id="XMLID_20_">
		<polygon id="XMLID_22_" class="st0" points="0,-80.8 87.1,-80.8 87.1,0 0,0 		"/>
		<polygon id="XMLID_21_" class="st1" points="87.1,0 0,0 0,-80.8 87.1,-80.8 		"/>
	</g>
</pattern>
<path id="XMLID_1450_" class="st2" d="M4.3,43.4L0,7c-0.4-3.7,2.5-7,6.2-7l48,0c3.7,0,6.7,3.3,6.2,7l-4.2,36.4
	c-0.4,3.2-3,5.6-6.2,5.6H10.5C7.3,49,4.6,46.6,4.3,43.4z"/>
<g id="XMLID_589_">
	<pattern  id="XMLID_31_" xlink:href="#coul1" patternTransform="matrix(1 0 0 1 1269.1339 -1399.2352)">
	</pattern>
	<path id="XMLID_594_" class="st3" d="M31.5,5.8c-1-0.7-2.4-0.7-3.4,0L12.9,16.5C12,17,11.6,18,11.6,19v11.4c0,1,0.5,2,1.4,2.5
		l15.5,10.3c1,0.7,2.3,0.7,3.3,0l15.8-10.4c0.8-0.6,1.4-1.5,1.4-2.5V19c0-1-0.5-2-1.4-2.5L31.5,5.8z M43.3,18.2l-5.8,3.9l-5.5-4
		l0-7.8L43.3,18.2z M28,10.3V18l-5.6,3.9l-5.6-3.8L28,10.3z M15.2,21.9l3.6,2.4l-3.6,2.5V21.9z M28.1,38.3l-11.3-7.6l5.7-3.9
		l5.7,3.8V38.3z M25.9,24.3l3.7-2.6l4.3,2.8l-3.8,2.5L25.9,24.3z M32.1,38.3v-7.7l5.4-3.6l5.8,3.8L32.1,38.3z M44.9,27l-3.8-2.5
		l3.8-2.6V27z"/>
</g>
</svg>
