<?xml version="1.0" encoding="utf-8"?>
<!-- Generator: Adobe Illustrator 19.0.0, SVG Export Plug-In . SVG Version: 6.00 Build 0)  -->
<svg version="1.1" id="Calque_1" xmlns="http://www.w3.org/2000/svg" xmlns:xlink="http://www.w3.org/1999/xlink" x="0px" y="0px"
	 viewBox="0 0 60.5 49" style="enable-background:new 0 0 60.5 49;" xml:space="preserve">
<style type="text/css">
	.st0{fill:none;}
	.st1{fill:#0B0F1D;}
	.st2{fill:#D24116;}
	.st3{fill:url(#XMLID_31_);}
</style>
<pattern  x="-283.6" y="-114.7" width="87.1" height="80.8" patternUnits="userSpaceOnUse" id="coul1" viewBox="0 -80.8 87.1 80.8" style="overflow:visible;">
	<g id="XMLID_20_">
		<polygon id="XMLID_22_" class="st0" points="0,-80.8 87.1,-80.8 87.1,0 0,0 		"/>
		<polygon id="XMLID_21_" class="st1" points="87.1,0 0,0 0,-80.8 87.1,-80.8 		"/>
	</g>
</pattern>
<path id="XMLID_1343_" class="st2" d="M4.3,43.4L0,7c-0.4-3.7,2.5-7,6.2-7l48,0c3.7,0,6.7,3.3,6.2,7l-4.2,36.4
	c-0.4,3.2-3,5.6-6.2,5.6H10.5C7.3,49,4.6,46.6,4.3,43.4z"/>
<pattern  id="XMLID_31_" xlink:href="#coul1" patternTransform="matrix(1 0 0 1 1286.4828 -1479.5294)">
</pattern>
<path id="XMLID_1269_" class="st3" d="M35.8,32.4c1.3-0.1,2.5-0.3,3.5-0.6c1-0.3,2.1-0.7,3.2-1.3c1.1-0.6,2-1.3,2.7-2.2
	c0.7-0.9,1.3-2,1.8-3.5c0.5-1.4,0.7-3.1,0.7-5c0-2.7-0.9-5-2.6-6.8c0.8-2,0.7-4.3-0.3-6.8C44.1,6,43.2,6.2,42,6.6
	C40.8,7,39.8,7.5,39,8.1l-1.3,0.8C35.6,8.3,33.5,8,31.3,8C29.1,8,27,8.3,25,8.9c-0.4-0.2-0.8-0.5-1.4-0.9C23,7.6,22,7.2,20.8,6.7
	c-1.3-0.5-2.2-0.6-2.9-0.4c-1,2.5-1.1,4.8-0.2,6.8c-1.7,1.9-2.6,4.2-2.6,6.8c0,1.9,0.2,3.5,0.7,5c0.5,1.4,1,2.6,1.7,3.5
	c0.7,0.9,1.6,1.6,2.7,2.2c1.1,0.6,2.1,1,3.1,1.3c1,0.3,2.1,0.5,3.4,0.6c-0.9,0.8-1.4,1.9-1.6,3.4c-0.5,0.2-1,0.4-1.5,0.5
	c-0.5,0.1-1.2,0.2-1.9,0.2c-0.7,0-1.5-0.2-2.2-0.7c-0.7-0.5-1.3-1.2-1.8-2.1c-0.4-0.7-1-1.3-1.6-1.7c-0.7-0.4-1.2-0.7-1.6-0.8
	l-0.7-0.1c-0.5,0-0.8,0-1,0.1c-0.2,0.1-0.2,0.2-0.2,0.4c0.1,0.2,0.2,0.3,0.3,0.5c0.1,0.2,0.3,0.3,0.4,0.4l0.2,0.2
	c0.5,0.2,1,0.6,1.4,1.3c0.5,0.6,0.8,1.2,1,1.7l0.3,0.8c0.3,0.8,0.8,1.5,1.5,2c0.7,0.5,1.4,0.9,2.2,1c0.8,0.1,1.6,0.2,2.3,0.2
	c0.7,0,1.4,0,1.8-0.1l0.8-0.1c0,0.8,0,2,0,3.1c0,0.9,0,0.8,0,1.8h12.4v-7.1C37.4,35,37,33.4,35.8,32.4z"/>
</svg>
