<?xml version="1.0" encoding="utf-8"?>
<!-- Generator: Adobe Illustrator 19.0.0, SVG Export Plug-In . SVG Version: 6.00 Build 0)  -->
<svg version="1.1" id="Calque_1" xmlns="http://www.w3.org/2000/svg" xmlns:xlink="http://www.w3.org/1999/xlink" x="0px" y="0px"
	 viewBox="-449 256 60.5 49" style="enable-background:new -449 256 60.5 49;" xml:space="preserve">
<style type="text/css">
	.st0{fill:#D8D8D8;}
	.st1{fill:#D24116;}
</style>
<polygon class="st0" points="-446.4,260.1 -446.4,280.4 -442.8,280.4 -442.8,298.3 -393.8,298.3 -393.8,280.4 -393.8,278 
	-393.8,260.1 "/>
<path id="XMLID_131_" class="st1" d="M-394.8,256h-48c-3.7,0-6.6,3.2-6.2,7l4.2,36.4c0.4,3.2,3,5.6,6.2,5.6h39.6
	c3.2,0,5.8-2.4,6.2-5.6l4.2-36.4C-388.1,259.3-391,256-394.8,256z M-396,279.9c-1.5,2.5-4.8,3.2-7.2,1.7c-0.5-0.3-0.9-0.7-1.2-1.1
	c0,0,0,0-0.1,0l-1.4,0.3c-0.1,0-0.3,0.2-0.3,0.3c0,1.5-0.2,3.1-0.8,4.6c-0.1,0.1,0,0.3,0.1,0.4l1.6,1c0.6,0.4,0.9,1.2,0.5,1.8
	l-1.2,2c-0.4,0.7-1.3,0.8-2,0.4l-1.5-0.9c-0.1-0.1-0.3,0-0.4,0.1c-1,1-2.3,2-3.7,2.6c-0.1,0.1-0.2,0.2-0.2,0.4l0.3,1.3
	c0.2,0.9-0.4,1.9-1.3,2.1l-1.5,0.4c-0.9,0.2-1.9-0.4-2.1-1.3l-0.3-1.3c0-0.2-0.2-0.3-0.3-0.3c-1.5,0-3-0.2-4.5-0.7
	c-0.1-0.1-0.3,0-0.4,0.1l-0.9,1.4c-0.4,0.7-1.4,0.9-2.1,0.5l-1.7-1.1c-0.7-0.5-1-1.5-0.6-2.2l0.9-1.4c0.1-0.1,0.1-0.3,0-0.4
	c-1.1-1.1-2-2.4-2.7-3.8c-0.1-0.1-0.2-0.2-0.4-0.2l-1.3,0.3c-0.9,0.2-1.9-0.4-2.1-1.3l-0.4-1.5c-0.2-0.9,0.4-1.9,1.3-2.1l1.3-0.3
	c0.1,0,0.3-0.2,0.3-0.3c0-1.5,0.3-3,0.7-4.3c0.1-0.1,0-0.3-0.1-0.4l-1.1-0.7c-2.5,2.2-6.3,2.5-9.3,0.7c-3.7-2.3-4.8-7.2-2.5-10.9
	c2.5-3.7,7.4-4.8,11.1-2.5c2.9,1.8,4.2,5.2,3.5,8.4l1.2,0.8c0.1,0.1,0.3,0,0.4-0.1c1.1-1.1,2.4-2.1,3.8-2.7c0.1-0.1,0.2-0.2,0.2-0.4
	l-0.3-1.4c-0.2-0.9,0.4-1.9,1.3-2.1l1.5-0.3c0.9-0.2,1.9,0.4,2.1,1.3l0.4,1.4c0,0.1,0.2,0.2,0.3,0.2c1.5,0,3,0.2,4.5,0.8
	c0.1,0.1,0.3,0,0.4-0.1l0.8-1.2c0.5-0.8,1.5-0.9,2.3-0.5l1.7,1c0.6,0.4,0.9,1.2,0.5,1.8l-1.1,1.6c-0.1,0.1-0.1,0.3,0,0.4
	c1.1,1.1,1.9,2.2,2.5,3.6c0.1,0.1,0.2,0.2,0.4,0.2l1.4-0.3c0.1,0,0.1,0,0.2,0c0.1-0.4,0.3-0.9,0.5-1.3c1.5-2.5,4.8-3.2,7.2-1.7
	C-395.4,274.2-394.5,277.4-396,279.9z"/>
</svg>
