<?xml version="1.0" encoding="utf-8"?>
<svg version="1.1" id="Calque_1" xmlns="http://www.w3.org/2000/svg" xmlns:xlink="http://www.w3.org/1999/xlink" x="0px" y="0px"
	 viewBox="0 0 60.5 49" style="enable-background:new 0 0 60.5 49;" xml:space="preserve">
<style type="text/css">
	.st0{fill:#D24116;}
</style>
<circle id="XMLID_19_" class="st0" cx="27.7" cy="25.4" r="2"/>
<path id="XMLID_125_" class="st0" d="M15.8,10.8c-3-4.1-9.1-2.7-10,2.3c-0.2,1.3,0.1,2.7,0.9,3.8c3,4.1,9.1,2.7,10-2.3
	C16.9,13.3,16.6,11.9,15.8,10.8z M14.7,16c-1.2,1.9-3.6,2.4-5.5,1.3c-1.9-1.2-2.4-3.6-1.3-5.5c1.2-1.9,3.6-2.4,5.5-1.3
	C15.3,11.7,15.8,14.2,14.7,16z"/>
<path id="XMLID_128_" class="st0" d="M34.1,18.8c-3.7-2.3-8.5-1.2-10.9,2.5c-2.3,3.7-1.2,8.5,2.5,10.9c3.7,2.3,8.5,1.2,10.9-2.5
	C38.9,25.9,37.8,21.1,34.1,18.8z M35.3,26.1c-0.9,5-7,6.4-10,2.3c-0.8-1.1-1.1-2.5-0.9-3.8c0.9-5,7-6.4,10-2.3
	C35.2,23.4,35.5,24.8,35.3,26.1z"/>
<path id="XMLID_131_" class="st0" d="M54.2,0h-48C2.5,0-0.4,3.2,0,7l4.2,36.4c0.4,3.2,3,5.6,6.2,5.6H50c3.2,0,5.8-2.4,6.2-5.6
	L60.4,7C60.9,3.3,58,0,54.2,0z M53,23.9c-1.5,2.5-4.8,3.2-7.2,1.7c-0.5-0.3-0.9-0.7-1.2-1.1c0,0,0,0-0.1,0l-1.4,0.3
	c-0.1,0-0.3,0.2-0.3,0.3c0,1.5-0.2,3.1-0.8,4.6c-0.1,0.1,0,0.3,0.1,0.4l1.6,1c0.6,0.4,0.9,1.2,0.5,1.8l-1.2,2
	c-0.4,0.7-1.3,0.8-2,0.4l-1.5-0.9c-0.1-0.1-0.3,0-0.4,0.1c-1,1-2.3,2-3.7,2.6c-0.1,0.1-0.2,0.2-0.2,0.4l0.3,1.3
	c0.2,0.9-0.4,1.9-1.3,2.1l-1.5,0.4c-0.9,0.2-1.9-0.4-2.1-1.3l-0.3-1.3c0-0.2-0.2-0.3-0.3-0.3c-1.5,0-3-0.2-4.5-0.7
	c-0.1-0.1-0.3,0-0.4,0.1l-0.9,1.4c-0.4,0.7-1.4,0.9-2.1,0.5l-1.7-1.1c-0.7-0.5-1-1.5-0.6-2.2l0.9-1.4c0.1-0.1,0.1-0.3,0-0.4
	c-1.1-1.1-2-2.4-2.7-3.8c-0.1-0.1-0.2-0.2-0.4-0.2l-1.3,0.3c-0.9,0.2-1.9-0.4-2.1-1.3l-0.4-1.5c-0.2-0.9,0.4-1.9,1.3-2.1l1.3-0.3
	c0.1,0,0.3-0.2,0.3-0.3c0-1.5,0.3-3,0.7-4.3c0.1-0.1,0-0.3-0.1-0.4l-1.1-0.7c-2.5,2.2-6.3,2.5-9.3,0.7c-3.7-2.3-4.8-7.2-2.5-10.9
	C6.9,6.1,11.8,5,15.5,7.3c2.9,1.8,4.2,5.2,3.5,8.4l1.2,0.8c0.1,0.1,0.3,0,0.4-0.1c1.1-1.1,2.4-2.1,3.8-2.7c0.1-0.1,0.2-0.2,0.2-0.4
	l-0.3-1.4c-0.2-0.9,0.4-1.9,1.3-2.1l1.5-0.3c0.9-0.2,1.9,0.4,2.1,1.3l0.4,1.4c0,0.1,0.2,0.2,0.3,0.2c1.5,0,3,0.2,4.5,0.8
	c0.1,0.1,0.3,0,0.4-0.1l0.8-1.2c0.5-0.8,1.5-0.9,2.3-0.5l1.7,1c0.6,0.4,0.9,1.2,0.5,1.8L39,15.8c-0.1,0.1-0.1,0.3,0,0.4
	c1.1,1.1,1.9,2.2,2.5,3.6c0.1,0.1,0.2,0.2,0.4,0.2l1.4-0.3c0.1,0,0.1,0,0.2,0c0.1-0.4,0.3-0.9,0.5-1.3c1.5-2.5,4.8-3.2,7.2-1.7
	S54.5,21.4,53,23.9z"/>
<circle id="XMLID_132_" class="st0" cx="48.5" cy="21.1" r="2.4"/>
</svg>
